<svg width="16" height="16" viewBox="0 0 16 16" fill="none" xmlns="http://www.w3.org/2000/svg">
<g opacity="0.3">
<path fill-rule="evenodd" clip-rule="evenodd" d="M8.82759 9.1432C10.7485 8.80119 12.2069 7.12263 12.2069 5.10345C12.2069 2.83718 10.3697 1 8.10345 1C5.83718 1 4 2.83718 4 5.10345C4 7.12263 5.45841 8.80119 7.37931 9.1432V14.2759C7.37931 14.6758 7.70352 15 8.10345 15C8.50338 15 8.82759 14.6758 8.82759 14.2759V9.1432ZM9.53207 3C9.53207 3.55228 8.89248 4 8.1035 4C7.31452 4 6.67493 3.55228 6.67493 3C6.67493 2.44772 7.31452 2 8.1035 2C8.89248 2 9.53207 2.44772 9.53207 3Z" fill="white"/>
</g>
</svg>
