<svg width="16" height="16" viewBox="0 0 16 16" fill="none" xmlns="http://www.w3.org/2000/svg">
<g opacity="0.3">
<path d="M14.2472 11.8371L12.806 10.8762L11.5248 10.0223C11.2776 9.85776 10.9453 9.91169 10.7628 10.146L9.97002 11.1651C9.79973 11.3863 9.49339 11.4498 9.24919 11.3146C8.71127 11.0154 8.07517 10.7337 6.67164 9.32835C5.26811 7.92302 4.98458 7.28871 4.68536 6.7508C4.55015 6.50659 4.6137 6.20026 4.83485 6.02999L5.854 5.23723C6.08827 5.05472 6.14223 4.72244 5.97772 4.47516L5.15 3.23345L4.1629 1.75279C3.99489 1.50076 3.65857 1.4251 3.39883 1.58087L2.26043 2.26382C1.95277 2.44508 1.72662 2.73778 1.62882 3.08123C1.31751 4.21626 1.25474 6.72007 5.26743 10.7328C9.28012 14.7454 11.7837 14.6825 12.9187 14.3711C13.2622 14.2734 13.5549 14.0472 13.7361 13.7395L14.4191 12.6012C14.5749 12.3414 14.4992 12.0051 14.2472 11.8371Z" fill="white"/>
</g>
</svg>
